<mxfile host="app.diagrams.net" modified="2024-04-05T15:22:05.278Z" agent="Mozilla/5.0 (X11; Linux x86_64) AppleWebKit/537.36 (KHTML, like Gecko) Chrome/123.0.0.0 Safari/537.36" version="24.0.7" etag="I0gxHypaxc1OWQZ9DQL2" type="github">
  <diagram name="Page-1" id="uqhQX91tud5MRFy94baX">
    <mxGraphModel>
      <root>
        <mxCell id="0" />
        <mxCell id="1" parent="0" />
      </root>
    </mxGraphModel>
  </diagram>
</mxfile>
